# AST/ASF file generated using VICON BodyLanguage
# -----------------------------------------------
:version 1.10
:name VICON
:units
  mass 1.0
  length 0.45
  angle deg
:documentation
   .ast/.asf automatically generated from VICON data using
   VICON BodyBuilder and BodyLanguage model FoxedUp or BRILLIANT.MOD
:root
   order TX TY TZ RX RY RZ
   axis XYZ
   position 0 0 0  
   orientation 0 0 0 
:bonedata
  begin
     id 1 
     name lhipjoint
     direction 0.589753 -0.68606 0.426044 
     length 2.54082 
     axis 0 0 0  XYZ
  end
  begin
     id 2 
     name lfemur
     direction 0.34202 -0.939693 0  
     length 7.04539  
     axis 0 0 20  XYZ
    dof rx ry rz
    limits (-160.0 20.0)
           (-70.0 70.0)
           (-60.0 70.0)
  end
  begin
     id 3 
     name ltibia
     direction 0.34202 -0.939693 0   
     length 7.83772   
     axis 0 0 20   XYZ
    dof rx
    limits (-10.0 170.0)
  end
  begin
     id 4 
     name lfoot
     direction 0.0596604 -0.163915 0.984669   
     length 2.39542   
     axis -90 7.62852e-016 20   XYZ
    dof rx rz
    limits (-45.0 90.0)
           (-70.0 20.0)
  end
  begin
     id 5 
     name ltoes
     direction 1.53514e-011 -4.21954e-011 1   
     length 1.2047   
     axis -90 7.62852e-016 20   XYZ
    dof rx
    limits (-90.0 20.0)
  end
  begin
     id 6 
     name rhipjoint
     direction -0.580585 -0.69168 0.429534   
     length 2.52018  
     axis 0 0 0  XYZ 
  end
  begin
     id 7 
     name rfemur
     direction -0.34202 -0.939693 0   
     length 7.0101   
     axis 0 0 -20   XYZ
    dof rx ry rz
    limits (-160.0 20.0)
           (-70.0 70.0)
           (-70.0 60.0)
  end
  begin
     id 8 
     name rtibia
     direction -0.34202 -0.939693 0   
     length 7.70628   
     axis 0 0 -20   XYZ
    dof rx
    limits (-10.0 170.0)
 end
 begin
     id 9 
     name rfoot
     direction -0.0696237 -0.19129 0.979061   
     length 2.52466  
     axis -90 -7.62852e-016 -20   XYZ
    dof rx rz
    limits (-45.0 90.0)
           (-20.0 70.0)
  end
  begin
     id 10 
     name rtoes
     direction -1.53519e-011 -4.21793e-011 1   
     length 1.266   
     axis -90 -7.62852e-016 -20   XYZ
    dof rx
    limits (-90.0 20.0)
  end
  begin
     id 11 
     name lowerback
     direction 0.00381965 0.995707 -0.0924856   
     length 2.20825   
     axis 0 0 0   XYZ
    dof rx ry rz
    limits (-20.0 45.0)
           (-30.0 30.0)
           (-30.0 30.0)
  end
  begin
     id 12 
     name upperback
     direction -0.0139043 0.999634 -0.0231929   
     length 2.21517   
     axis 0 0 0   XYZ
    dof rx ry rz
    limits (-20.0 45.0)
           (-30.0 30.0)
           (-30.0 30.0)
  end
  begin
     id 13 
     name thorax
     direction -0.0143933 0.999691 0.0202892   
     length 2.22911   
     axis 0 0 0   XYZ
    dof rx ry rz
    limits (-20.0 45.0)
           (-30.0 30.0)
           (-30.0 30.0)
  end
  begin
     id 14 
     name lowerneck
     direction -0.0251153 0.981819 0.188153   
     length 1.61782   
     axis 0 0 0   XYZ
    dof rx ry rz
    limits (-20.0 45.0)
           (-30.0 30.0)
           (-30.0 30.0)
  end
  begin
     id 15 
     name upperneck
     direction 0.0563891 0.969357 -0.239095   
     length 1.64526   
     axis 0 0 0   XYZ
    dof rx ry rz
    limits (-20.0 45.0)
           (-30.0 30.0)
           (-30.0 30.0)
  end
  begin
     id 16
     name head
     direction 0.0208328 0.99459 -0.101773  
     length 1.67436  
     axis 0 0 0   XYZ
    dof rx ry rz
    limits (-20.0 45.0)
           (-30.0 30.0)
           (-30.0 30.0)
  end
  begin
     id 17 
     name lclavicle
     direction 0.917689 0.397224 0.00772059  
     length 3.31102  
     axis 0 0 0   XYZ
    dof ry rz
    limits (-20.0 10.0)
           (0.0 20.0)
  end
  begin
     id 18 
     name lhumerus
     direction 1 -4.4896e-011 2.32308e-027   
     length 5.25537   
     axis 180 -30 -90   XYZ
    dof rx ry rz
    limits (-60.0 90.0)
           (-90.0 90.0)
           (-90.0 90.0)
  end
  begin
     id 19
     name lradius
     direction 1 -4.49005e-011 -2.04271e-027   
     length 3.38855   
     axis 180 -30 -90   XYZ
    dof rx
    limits (-10.0 170.0)
  end
  begin
     id 20
     name lwrist
     direction 1 -4.48892e-011 2.56952e-028   
     length 1.69428   
     axis -5.12785e-016 90 90   XYZ
    dof ry
    limits (-180.0 0.0)
 end
  begin
     id 21 
     name lhand
     direction 1 -4.48966e-011 5.13905e-028   
     length 0.614516   
     axis -3.27915e-016 90 90   XYZ
    dof rx rz
    limits (-90.0 90.0)
           (-45.0 45.0)
  end
  begin
     id 22 
     name lfingers
     direction 1 -4.48979e-011 1.02781e-027   
     length 0.495439   
     axis -6.5583e-016 90 90   XYZ
    dof rx
    limits (0.0 90.0)
  end
  begin
     id 23
     name lthumb
     direction 0.707107 -6.35001e-011 0.707107   
     length 0.711354   
     axis -90 45 2.85299e-015   XYZ
    dof rx rz
    limits (-45.0 45.0)
           (-45.0 45.0)
  end
  begin
     id 24 
     name rclavicle
     direction -0.938556 0.342765 -0.0403177   
     length 3.27019  
     axis 0 0 0   XYZ 
    dof ry rz
    limits (-10.0 20.0)
           (-20.0 0.0)
  end
  begin
     id 25 
     name rhumerus
     direction -1 -4.48966e-011 2.52291e-027  
     length 5.38183   
     axis 180 30 90   XYZ
    dof rx ry rz
    limits (-90.0 60.0)
           (-90.0 90.0)
           (-90.0 90.0)
  end
  begin
     id 26 
     name rradius
     direction -1 -4.4896e-011 1.5797e-027   
     length 3.16988   
     axis 180 30 90   XYZ
    dof rx
    limits (-10.0 170.0)
  end
  begin
     id 27 
     name rwrist
     direction -1 -4.48947e-011 2.56952e-028   
     length 1.58494   
     axis -5.12785e-016 -90 -90   XYZ
    dof ry
    limits (-180.0 0.0)
  end
  begin
     id 28
     name rhand
     direction -1 -4.49098e-011 5.13905e-028   
     length 0.637679   
     axis -3.27915e-016 -90 -90   XYZ
    dof rx rz
    limits (-90.0 90.0)
           (-45.0 45.0)
  end
  begin
     id 29
     name rfingers
     direction -1 -4.49026e-011 1.02781e-027   
     length 0.514113   
     axis -6.5583e-016 -90 -90   XYZ
    dof rx
    limits (0.0 90.0)
  end
  begin
     id 30
     name rthumb
     direction -0.707107 -6.3491e-011 0.707107   
     length 0.738167   
     axis -90 -45 -2.85299e-015   XYZ
    dof rx rz
    limits (-45.0 45.0)
           (-45.0 45.0)
  end
:hierarchy
  begin
    root lhipjoint rhipjoint lowerback
    lhipjoint lfemur
    lfemur ltibia
    ltibia lfoot
    lfoot ltoes
    rhipjoint rfemur
    rfemur rtibia
    rtibia rfoot
    rfoot rtoes
    lowerback upperback
    upperback thorax
    thorax lowerneck lclavicle rclavicle
    lowerneck upperneck
    upperneck head
    lclavicle lhumerus
    lhumerus lradius
    lradius lwrist
    lwrist lhand lthumb
    lhand lfingers
    rclavicle rhumerus
    rhumerus rradius
    rradius rwrist
    rwrist rhand rthumb
    rhand rfingers
  end

#!OML:ASF H:\Swim\Project 1\Capture day 1\Session 1\swimmer.ASF
:FULLY-SPECIFIED
:DEGREES
1424
root 4.49266 11.4714 25.0271 104.451 -4.03778 -0.958948
lowerback 0.714212 0.350943 -2.5735
upperback -10.4433 0.174197 -1.40694
thorax -11.579 0.256212 -0.101822
lowerneck -21.2515 -5.67281 -9.47615
upperneck 19.1325 -6.75731 8.39552
head 10.2411 -2.82388 3.52103
rclavicle 2.28602e-015 -1.62755e-014
rhumerus 34.4796 5.7115 -16.7648
rradius 48.4291
rwrist -20.747
rhand -17.3311 1.09027
rfingers 7.12502
rthumb 8.91582 -28.7014
lclavicle 2.28602e-015 -1.62755e-014
lhumerus 33.4638 -3.54213 19.318
lradius 52.9891
lwrist 9.48512
lhand -23.5327 18.6868
lfingers 7.12502
lthumb 2.92869 -311.354
rfemur -26.9521 3.32764 18.4265
rtibia 30.6861
rfoot -2.87644 -8.70874
rtoes -3.14616
lfemur -31.3531 -3.16871 -15.4164
ltibia 31.0534
lfoot 2.3345 7.63809
ltoes -3.58537
1425
root 4.48795 11.4699 25.0346 104.361 -4.01529 -0.885956
lowerback 0.925789 0.40252 -2.80476
upperback -10.3604 0.234126 -1.32002
thorax -11.6174 0.313915 0.113135
lowerneck -20.5544 -5.68855 -9.57202
upperneck 18.7936 -6.78919 8.39842
head 10 -2.86279 3.53608
rclavicle 9.93923e-016 -6.5102e-015
rhumerus 32.643 5.78732 -18.1678
rradius 50.5707
rwrist -20.3817
rhand -17.8612 1.58286
rfingers 7.12502
rthumb 8.40433 -28.2299
lclavicle 9.93923e-016 -6.5102e-015
lhumerus 31.6146 -4.47087 20.3394
lradius 55.73
lwrist 9.1646
lhand -24.1302 17.8407
lfingers 7.12502
lthumb 2.35157 -312.193
rfemur -26.917 3.50237 18.4516
rtibia 30.5724
rfoot -2.94579 -8.78256
rtoes -3.2822
lfemur -31.4847 -3.51656 -15.237
ltibia 31.0386
lfoot 1.94627 8.11368
ltoes -3.69272
1426
root 4.48306 11.4684 25.0422 104.275 -4.00171 -0.818212
lowerback 1.1553 0.480643 -3.08439
upperback -10.3021 0.325818 -1.23258
thorax -11.6984 0.392874 0.350963
lowerneck -19.8207 -5.7202 -9.65124
upperneck 18.4671 -6.84909 8.38353
head 9.75977 -2.91589 3.53919
rclavicle 4.96962e-015 2.48481e-017
rhumerus 30.694 5.8881 -19.5365
rradius 52.8028
rwrist -19.7864
rhand -18.3032 2.19064
rfingers 7.12502
rthumb 7.97773 -27.6388
lclavicle 4.96962e-015 2.48481e-017
lhumerus 29.7865 -5.54487 21.4367
lradius 58.5487
lwrist 8.95492
lhand -24.7129 16.8796
lfingers 7.12502
lthumb 1.78887 -313.148
rfemur -26.9014 3.71155 18.459
rtibia 30.47
rfoot -3.07237 -8.89001
rtoes -3.40162
lfemur -31.6119 -3.90138 -15.0527
ltibia 31.014
lfoot 1.55423 8.61853
ltoes -3.70463
1427
root 4.47807 11.4669 25.0497 104.197 -3.99969 -0.758502
lowerback 1.40264 0.581699 -3.39805
upperback -10.2618 0.444078 -1.15197
thorax -11.8149 0.488734 0.596132
lowerneck -19.0765 -5.76736 -9.70334
upperneck 18.1415 -6.93577 8.3485
head 9.52023 -2.98166 3.528
rclavicle -4.77083e-015 4.94477e-015
rhumerus 28.647 6.01766 -20.8619
rradius 55.1211
rwrist -19.0658
rhand -18.6848 2.89977
rfingers 7.12502
rthumb 7.60937 -26.9433
lclavicle -4.77083e-015 4.94477e-015
lhumerus 27.9863 -6.75863 22.5792
lradius 61.4157
lwrist 8.91131
lhand -25.3111 15.8446
lfingers 7.12502
lthumb 1.21109 -314.179
rfemur -26.9109 3.95264 18.4453
rtibia 30.3814
rfoot -3.25392 -9.0275
rtoes -3.49748
lfemur -31.7376 -4.32259 -14.867
ltibia 30.9788
lfoot 1.15635 9.15595
ltoes -3.57493
1428
root 4.47304 11.4651 25.0569 104.124 -4.01016 -0.709722
lowerback 1.66532 0.695346 -3.72752
upperback -10.2326 0.574928 -1.0832
thorax -11.9574 0.592368 0.83456
lowerneck -18.3364 -5.82082 -9.71974
upperneck 17.8062 -7.03629 8.29212
head 9.27858 -3.05353 3.50273
rclavicle 2.10712e-014 -6.55989e-015
rhumerus 26.5382 6.18589 -22.1681
rradius 57.5128
rwrist -18.3456
rhand -19.009 3.68527
rfingers 7.12502
rthumb 7.29645 -26.1689
lclavicle 2.10712e-014 -6.55989e-015
lhumerus 26.2068 -8.08553 23.7331
lradius 64.2844
lwrist 9.01524
lhand -25.8928 14.7433
lfingers 7.12502
lthumb 0.649243 -315.278
rfemur -26.9426 4.23361 18.4066
rtibia 30.3067
rfoot -3.49399 -9.19988
rtoes -3.52194
lfemur -31.8596 -4.77833 -14.6821
ltibia 30.9354
lfoot 0.73339 9.73648
ltoes -3.38625
1429
root 4.46815 11.463 25.0636 104.061 -4.03398 -0.672054
lowerback 1.9365 0.811785 -4.04943
upperback -10.2027 0.706205 -1.03085
thorax -12.1067 0.694778 1.04993
lowerneck -17.6392 -5.87647 -9.70598
upperneck 17.4504 -7.14094 8.22348
head 9.03766 -3.12569 3.46846
rclavicle -7.15625e-015 9.64106e-015
rhumerus 24.4115 6.39903 -23.467
rradius 59.9666
rwrist -17.7985
rhand -19.3045 4.53977
rfingers 7.12502
rthumb 7.01126 -25.3241
lclavicle -7.15625e-015 9.64106e-015
lhumerus 24.4508 -9.48363 24.8772
lradius 67.1075
lwrist 9.22294
lhand -26.4334 13.5791
lfingers 7.12502
lthumb 0.127133 -316.441
rfemur -27 4.55357 18.3403
rtibia 30.2427
rfoot -3.78027 -9.4053
rtoes -3.4628
lfemur -31.986 -5.26187 -14.5012
ltibia 30.8891
lfoot 0.278796 10.3578
ltoes -3.14584
1430
root 4.4635 11.4603 25.0698 104.008 -4.06188 -0.644182
lowerback 2.20522 0.923106 -4.34753
upperback -10.1668 0.829556 -0.987623
thorax -12.2486 0.790266 1.24245
lowerneck -16.9908 -5.9274 -9.67635
upperneck 17.0716 -7.23659 8.14798
head 8.79718 -3.19242 3.43121
rclavicle 7.95139e-016 6.01324e-015
rhumerus 22.3065 6.66625 -24.7865
rradius 62.4565
rwrist -17.5176
rhand -19.5485 5.45392
rfingers 7.12502
rthumb 6.77569 -24.4177
lclavicle 7.95139e-016 6.01324e-015
lhumerus 22.7093 -10.9251 25.9929
lradius 69.8445
lwrist 9.48081
lhand -26.9062 12.3678
lfingers 7.12502
lthumb -0.329464 -317.653
rfemur -27.0799 4.91782 18.2543
rtibia 30.1849
rfoot -4.11207 -9.64596
rtoes -3.34095
lfemur -32.1205 -5.77027 -14.3151
ltibia 30.8467
lfoot -0.212297 11.0193
ltoes -2.83657
1431
root 4.45922 11.4569 25.0751 103.966 -4.09006 -0.625429
lowerback 2.47113 1.02323 -4.60491
upperback -10.1264 0.93812 -0.952853
thorax -12.3832 0.873681 1.40447
lowerneck -16.4017 -5.96896 -9.64826
upperneck 16.6802 -7.31403 8.07496
head 8.56279 -3.24931 3.39804
rclavicle -5.1684e-015 9.69075e-015
rhumerus 20.246 7.00155 -26.1313
rradius 64.9539
rwrist -17.5643
rhand -19.7136 6.45378
rfingers 7.12502
rthumb 6.61626 -23.4229
lclavicle -5.1684e-015 9.69075e-015
lhumerus 20.9753 -12.3918 27.0817
lradius 72.4554
lwrist 9.71094
lhand -27.2943 11.1377
lfingers 7.12502
lthumb -0.704289 -318.884
rfemur -27.1812 5.33227 18.1501
rtibia 30.1294
rfoot -4.48663 -9.9231
rtoes -3.13433
lfemur -32.2669 -6.2915 -14.1236
ltibia 30.8137
lfoot -0.742027 11.7095
ltoes -2.50531
1432
root 4.45541 11.4526 25.0796 103.934 -4.11232 -0.612577
lowerback 2.7272 1.11328 -4.8204
upperback -10.0778 1.03533 -0.919244
thorax -12.5012 0.946771 1.54321
lowerneck -15.8838 -6.0033 -9.64281
upperneck 16.2885 -7.3734 8.01673
head 8.34203 -3.29617 3.37607
rclavicle -1.66979e-014 -6.21202e-015
rhumerus 18.2351 7.39679 -27.4849
rradius 67.4354
rwrist -17.9072
rhand -19.7546 7.52074
rfingers 7.12502
rthumb 6.57674 -22.3571
lclavicle -1.66979e-014 -6.21202e-015
lhumerus 19.2565 -13.8645 28.1755
lradius 74.9013
lwrist 9.88076
lhand -27.5816 9.88054
lfingers 7.12502
lthumb -0.981776 -320.142
rfemur -27.3001 5.79455 18.0342
rtibia 30.0729
rfoot -4.89981 -10.2332
rtoes -2.91448
lfemur -32.4253 -6.817 -13.9233
ltibia 30.7949
lfoot -1.30822 12.4118
ltoes -2.15829
1433
root 4.45209 11.4474 25.0832 103.907 -4.13725 -0.603729
lowerback 2.97604 1.19204 -5.00712
upperback -10.027 1.11829 -0.887308
thorax -12.611 1.00957 1.66581
lowerneck -15.427 -6.02794 -9.65653
upperneck 15.9066 -7.4134 7.9705
head 8.13601 -3.33251 3.36377
rclavicle 1.74931e-014 5.56597e-015
rhumerus 16.2649 7.84476 -28.851
rradius 69.8725
rwrist -18.4143
rhand -19.6148 8.62465
rfingers 7.12502
rthumb 6.71163 -21.249
lclavicle 1.74931e-014 5.56597e-015
lhumerus 17.5443 -15.3394 29.2978
lradius 77.1505
lwrist 9.96463
lhand -27.7424 8.58211
lfingers 7.12502
lthumb -1.13713 -321.441
rfemur -27.4311 6.29327 17.8985
rtibia 30.0159
rfoot -5.35315 -10.5675
rtoes -2.67431
lfemur -32.5893 -7.33661 -13.7292
ltibia 30.7906
lfoot -1.9008 13.1069
ltoes -1.81407
1434
root 4.4492 11.4413 25.0857 103.881 -4.16159 -0.596657
lowerback 3.22213 1.26021 -5.16713
upperback -9.98332 1.18785 -0.854281
thorax -12.7264 1.06331 1.77617
lowerneck -15.0135 -6.04162 -9.6878
upperneck 15.5411 -7.43323 7.92865
head 7.9431 -3.35882 3.35839
rclavicle -1.59028e-014 5.11871e-015
rhumerus 14.3166 8.35231 -30.225
rradius 72.2313
rwrist -18.9226
rhand -19.2835 9.73542
rfingers 7.12502
rthumb 7.03151 -20.1278
lclavicle -1.59028e-014 5.11871e-015
lhumerus 15.8242 -16.8195 30.4794
lradius 79.185
lwrist 9.97933
lhand -27.7666 7.24431
lfingers 7.12502
lthumb -1.16046 -322.779
rfemur -27.57 6.84242 17.7437
rtibia 29.9592
rfoot -5.86756 -10.9315
rtoes -2.38407
lfemur -32.7543 -7.84532 -13.5399
ltibia 30.8003
lfoot -2.50773 13.7786
ltoes -1.46028
1435
root 4.44666 11.4343 25.0875 103.855 -4.19084 -0.587369
lowerback 3.46802 1.31718 -5.30884
upperback -9.94487 1.24228 -0.821665
thorax -12.8465 1.10789 1.8777
lowerneck -14.6621 -6.04711 -9.72702
upperneck 15.1927 -7.43697 7.88819
head 7.76654 -3.37623 3.35618
rclavicle -1.98785e-014 9.49197e-015
rhumerus 12.3831 8.91369 -31.6049
rradius 74.4751
rwrist -19.2735
rhand -18.8342 10.8422
rfingers 7.12502
rthumb 7.46522 -19.0061
lclavicle -1.98785e-014 9.49197e-015
lhumerus 14.0958 -18.2923 31.7325
lradius 80.9979
lwrist 9.94407
lhand -27.6545 5.90077
lfingers 7.12502
lthumb -1.05224 -324.122
rfemur -27.7194 7.43961 17.5633
rtibia 29.9073
rfoot -6.44471 -11.327
rtoes -2.02745
lfemur -32.9174 -8.3307 -13.3663
ltibia 30.8192
lfoot -3.11114 14.4065
ltoes -1.11719
1436
root 4.44437 11.4266 25.0884 103.829 -4.21754 -0.573842
lowerback 3.71301 1.36167 -5.43039
upperback -9.92422 1.28002 -0.788266
thorax -12.9855 1.143 1.97078
lowerneck -14.3333 -6.03995 -9.76643
upperneck 14.8551 -7.42328 7.84876
head 7.59671 -3.38455 3.35648
rclavicle -2.3059e-014 -5.36719e-015
rhumerus 10.4382 9.55953 -32.9936
rradius 76.5745
rwrist -19.3534
rhand -18.3698 11.9371
rfingers 7.12502
rthumb 7.91345 -17.8948
lclavicle -2.3059e-014 -5.36719e-015
lhumerus 12.3298 -19.7973 33.042
lradius 82.6032
lwrist 9.95372
lhand -27.5193 4.57351
lfingers 7.12502
lthumb -0.92164 -325.449
rfemur -27.8798 8.08838 17.3667
rtibia 29.8624
rfoot -7.08179 -11.764
rtoes -1.64991
lfemur -33.0766 -8.78419 -13.2023
ltibia 30.846
lfoot -3.69476 14.9775
ltoes -0.761408
1437
root 4.44207 11.4183 25.089 103.812 -4.24788 -0.553854
lowerback 3.94889 1.39715 -5.53759
upperback -9.91125 1.30616 -0.756191
thorax -13.1266 1.17117 2.05615
lowerneck -14.0654 -6.03065 -9.80612
upperneck 14.5129 -7.40081 7.80126
head 7.43557 -3.38792 3.35421
rclavicle 7.15625e-015 -5.31749e-015
rhumerus 8.48299 10.2732 -34.3773
rradius 78.504
rwrist -19.1186
rhand -18.0001 13.0124
rfingers 7.12502
rthumb 8.27026 -16.8057
lclavicle 7.15625e-015 -5.31749e-015
lhumerus 10.5377 -21.3207 34.418
lradius 84.0045
lwrist 9.9631
lhand -27.4224 3.34739
lfingers 7.12502
lthumb -0.828049 -326.674
rfemur -28.0652 8.80695 17.1417
rtibia 29.8275
rfoot -7.79789 -12.2594
rtoes -1.27086
lfemur -33.2419 -9.18369 -13.0599
ltibia 30.8777
lfoot -4.21623 15.4569
ltoes -0.315443
1438
root 4.43982 11.4096 25.0884 103.796 -4.27141 -0.532942
lowerback 4.17627 1.42471 -5.62069
upperback -9.90817 1.323 -0.728557
thorax -13.2725 1.19242 2.12465
lowerneck -13.8395 -6.01886 -9.8424
upperneck 14.1757 -7.37533 7.76532
head 7.28404 -3.38754 3.35497
rclavicle 1.43125e-014 -9.49197e-015
rhumerus 6.5062 11.0706 -35.7588
rradius 80.2503
rwrist -18.584
rhand -17.7917 14.0348
rfingers 7.12502
rthumb 8.47139 -15.7753
lclavicle 1.43125e-014 -9.49197e-015
lhumerus 8.70143 -22.8883 35.814
lradius 85.232
lwrist 9.95987
lhand -27.4837 2.35478
lfingers 7.12502
lthumb -0.887287 -327.667
rfemur -28.2631 9.58063 16.9065
rtibia 29.8032
rfoot -8.5748 -12.7976
rtoes -0.84246
lfemur -33.3985 -9.53976 -12.9256
ltibia 30.9153
lfoot -4.70682 15.874
ltoes 0.0813888
